STARTFONT 2.1
FONT -Monotype-Gill Sans-Regular-I-Normal--14-140-72-72-P-61-iso8859-1
SIZE 14 72 72
FONTBOUNDINGBOX 17 16 -2 -3

STARTPROPERTIES 22
FOUNDRY "Monotype"
FAMILY_NAME "Gill Sans"
WEIGHT_NAME "Regular"
SLANT "I"
SETWIDTH_NAME "Normal"
ADD_STYLE_NAME ""
PIXEL_SIZE 14
POINT_SIZE 140
RESOLUTION_X 72
RESOLUTION_Y 72
SPACING "P"
AVERAGE_WIDTH 61
CHARSET_REGISTRY "iso8859"
CHARSET_ENCODING "1"
COPYRIGHT "Copyright (c) 1996 Monotype Typography Ltd."
CAP_HEIGHT 11
X_HEIGHT 7
WEIGHT 10
QUAD_WIDTH 9
DEFAULT_CHAR 32
FONT_DESCENT 4
FONT_ASCENT 13
ENDPROPERTIES

CHARS 191

STARTCHAR space
ENCODING 32
SWIDTH 278 0
DWIDTH 5 0
BBX 0 0 0 0
BITMAP
ENDCHAR

STARTCHAR exclam
ENCODING 33
SWIDTH 250 0
DWIDTH 4 0
BBX 3 10 1 0
BITMAP
20
20
20
20
40
40
40
40
00
C0
ENDCHAR

STARTCHAR quotedbl
ENCODING 34
SWIDTH 354 0
DWIDTH 5 0
BBX 3 3 2 8
BITMAP
A0
A0
A0
ENDCHAR

STARTCHAR numbersign
ENCODING 35
SWIDTH 584 0
DWIDTH 9 0
BBX 8 10 1 0
BITMAP
12
12
12
FF
24
24
FF
48
48
48
ENDCHAR

STARTCHAR dollar
ENCODING 36
SWIDTH 500 0
DWIDTH 8 0
BBX 7 12 1 -2
BITMAP
08
3C
52
50
30
18
14
14
94
78
20
20
ENDCHAR

STARTCHAR percent
ENCODING 37
SWIDTH 708 0
DWIDTH 11 0
BBX 10 10 1 0
BITMAP
3080
4900
8A00
9200
6400
0980
1240
1440
2480
4300
ENDCHAR

STARTCHAR ampersand
ENCODING 38
SWIDTH 688 0
DWIDTH 10 0
BBX 9 10 1 0
BITMAP
0C00
1200
2200
2C00
1000
6980
8A00
8400
8A00
7180
ENDCHAR

STARTCHAR quoteright
ENCODING 39
SWIDTH 198 0
DWIDTH 3 0
BBX 3 3 1 7
BITMAP
60
20
C0
ENDCHAR

STARTCHAR parenleft
ENCODING 40
SWIDTH 292 0
DWIDTH 4 0
BBX 4 13 2 -3
BITMAP
10
20
40
40
80
80
80
80
80
80
80
40
40
ENDCHAR

STARTCHAR parenright
ENCODING 41
SWIDTH 292 0
DWIDTH 4 0
BBX 4 13 -1 -3
BITMAP
20
20
10
10
10
10
10
10
10
20
20
40
80
ENDCHAR

STARTCHAR asterisk
ENCODING 42
SWIDTH 448 0
DWIDTH 7 0
BBX 5 6 2 5
BITMAP
20
A8
70
70
A8
20
ENDCHAR

STARTCHAR plus
ENCODING 43
SWIDTH 584 0
DWIDTH 9 0
BBX 7 7 2 2
BITMAP
10
10
10
FE
10
10
10
ENDCHAR

STARTCHAR comma
ENCODING 44
SWIDTH 198 0
DWIDTH 3 0
BBX 3 3 -1 -2
BITMAP
60
20
C0
ENDCHAR

STARTCHAR minus
ENCODING 45
SWIDTH 584 0
DWIDTH 9 0
BBX 7 1 1 5
BITMAP
FE
ENDCHAR

STARTCHAR period
ENCODING 46
SWIDTH 198 0
DWIDTH 3 0
BBX 2 1 0 0
BITMAP
C0
ENDCHAR

STARTCHAR slash
ENCODING 47
SWIDTH 281 0
DWIDTH 4 0
BBX 4 10 0 0
BITMAP
10
10
20
20
20
40
40
40
80
80
ENDCHAR

STARTCHAR zero
ENCODING 48
SWIDTH 521 0
DWIDTH 8 0
BBX 6 10 1 0
BITMAP
18
24
44
44
84
84
88
88
90
60
ENDCHAR

STARTCHAR one
ENCODING 49
SWIDTH 521 0
DWIDTH 8 0
BBX 3 10 3 0
BITMAP
20
20
20
40
40
40
40
80
80
80
ENDCHAR

STARTCHAR two
ENCODING 50
SWIDTH 521 0
DWIDTH 8 0
BBX 7 10 1 0
BITMAP
1C
22
02
04
08
10
20
40
80
FC
ENDCHAR

STARTCHAR three
ENCODING 51
SWIDTH 521 0
DWIDTH 8 0
BBX 7 10 1 0
BITMAP
1C
22
02
04
18
04
04
04
88
70
ENDCHAR

STARTCHAR four
ENCODING 52
SWIDTH 521 0
DWIDTH 8 0
BBX 7 10 0 0
BITMAP
02
06
0A
14
24
44
FE
08
08
08
ENDCHAR

STARTCHAR five
ENCODING 53
SWIDTH 521 0
DWIDTH 8 0
BBX 7 10 1 0
BITMAP
1E
10
20
20
38
04
04
04
88
70
ENDCHAR

STARTCHAR six
ENCODING 54
SWIDTH 521 0
DWIDTH 8 0
BBX 6 10 1 0
BITMAP
08
10
20
40
78
C4
84
84
88
70
ENDCHAR

STARTCHAR seven
ENCODING 55
SWIDTH 521 0
DWIDTH 8 0
BBX 6 10 2 0
BITMAP
FC
08
10
10
20
20
40
40
80
80
ENDCHAR

STARTCHAR eight
ENCODING 56
SWIDTH 521 0
DWIDTH 8 0
BBX 6 10 1 0
BITMAP
18
24
44
48
38
44
84
84
88
70
ENDCHAR

STARTCHAR nine
ENCODING 57
SWIDTH 521 0
DWIDTH 8 0
BBX 6 10 2 0
BITMAP
38
44
84
84
8C
78
08
10
20
40
ENDCHAR

STARTCHAR colon
ENCODING 58
SWIDTH 198 0
DWIDTH 3 0
BBX 3 7 0 0
BITMAP
60
00
00
00
00
00
C0
ENDCHAR

STARTCHAR semicolon
ENCODING 59
SWIDTH 198 0
DWIDTH 3 0
BBX 4 9 -1 -2
BITMAP
30
00
00
00
00
00
60
20
C0
ENDCHAR

STARTCHAR less
ENCODING 60
SWIDTH 584 0
DWIDTH 9 0
BBX 7 7 1 2
BITMAP
02
0C
30
C0
30
0C
02
ENDCHAR

STARTCHAR equal
ENCODING 61
SWIDTH 584 0
DWIDTH 9 0
BBX 7 4 1 3
BITMAP
FE
00
00
FE
ENDCHAR

STARTCHAR greater
ENCODING 62
SWIDTH 584 0
DWIDTH 9 0
BBX 7 7 1 2
BITMAP
80
60
18
06
18
60
80
ENDCHAR

STARTCHAR question
ENCODING 63
SWIDTH 354 0
DWIDTH 5 0
BBX 4 10 1 0
BITMAP
60
10
10
10
20
20
40
40
00
C0
ENDCHAR

STARTCHAR at
ENCODING 64
SWIDTH 1010 0
DWIDTH 15 0
BBX 13 14 1 -3
BITMAP
0FC0
3020
4010
4748
8888
8888
9088
9088
9110
9110
4EE0
4008
3030
0FC0
ENDCHAR

STARTCHAR A
ENCODING 65
SWIDTH 521 0
DWIDTH 8 0
BBX 7 10 0 0
BITMAP
04
04
0C
12
12
22
7E
42
82
82
ENDCHAR

STARTCHAR B
ENCODING 66
SWIDTH 510 0
DWIDTH 8 0
BBX 6 10 1 0
BITMAP
38
24
24
44
78
48
44
84
88
F0
ENDCHAR

STARTCHAR C
ENCODING 67
SWIDTH 552 0
DWIDTH 8 0
BBX 7 10 1 0
BITMAP
1E
20
40
40
80
80
80
80
44
38
ENDCHAR

STARTCHAR D
ENCODING 68
SWIDTH 656 0
DWIDTH 10 0
BBX 8 10 1 0
BITMAP
3C
22
21
41
41
41
41
82
82
FC
ENDCHAR

STARTCHAR E
ENCODING 69
SWIDTH 510 0
DWIDTH 8 0
BBX 7 10 1 0
BITMAP
3E
20
20
40
78
40
40
80
80
FC
ENDCHAR

STARTCHAR F
ENCODING 70
SWIDTH 417 0
DWIDTH 6 0
BBX 6 10 1 0
BITMAP
3C
20
20
40
78
40
40
80
80
80
ENDCHAR

STARTCHAR G
ENCODING 71
SWIDTH 604 0
DWIDTH 9 0
BBX 9 10 1 0
BITMAP
1F80
2000
4000
4000
8000
8000
8700
8100
4200
3C00
ENDCHAR

STARTCHAR H
ENCODING 72
SWIDTH 698 0
DWIDTH 10 0
BBX 9 10 1 0
BITMAP
2080
2080
2080
4100
7F00
4100
4100
8200
8200
8200
ENDCHAR

STARTCHAR I
ENCODING 73
SWIDTH 240 0
DWIDTH 4 0
BBX 3 10 1 0
BITMAP
20
20
20
40
40
40
40
80
80
80
ENDCHAR

STARTCHAR J
ENCODING 74
SWIDTH 240 0
DWIDTH 4 0
BBX 6 13 -2 -3
BITMAP
04
04
04
04
08
08
08
08
10
10
10
20
C0
ENDCHAR

STARTCHAR K
ENCODING 75
SWIDTH 563 0
DWIDTH 8 0
BBX 7 10 1 0
BITMAP
22
24
28
50
60
60
50
88
84
82
ENDCHAR

STARTCHAR L
ENCODING 76
SWIDTH 417 0
DWIDTH 6 0
BBX 5 10 1 0
BITMAP
20
20
20
40
40
40
40
80
80
F8
ENDCHAR

STARTCHAR M
ENCODING 77
SWIDTH 813 0
DWIDTH 12 0
BBX 11 10 0 0
BITMAP
0820
0820
1860
18A0
28A0
2920
4520
4620
8420
8420
ENDCHAR

STARTCHAR N
ENCODING 78
SWIDTH 688 0
DWIDTH 10 0
BBX 9 10 1 0
BITMAP
2080
2080
3080
5100
4900
4900
4500
8600
8200
8200
ENDCHAR

STARTCHAR O
ENCODING 79
SWIDTH 656 0
DWIDTH 10 0
BBX 8 10 1 0
BITMAP
1C
22
41
41
81
81
82
82
44
38
ENDCHAR

STARTCHAR P
ENCODING 80
SWIDTH 448 0
DWIDTH 7 0
BBX 7 10 1 0
BITMAP
3C
22
22
44
78
40
40
80
80
80
ENDCHAR

STARTCHAR Q
ENCODING 81
SWIDTH 656 0
DWIDTH 10 0
BBX 8 13 1 -3
BITMAP
1C
22
41
41
81
81
82
82
44
38
10
09
06
ENDCHAR

STARTCHAR R
ENCODING 82
SWIDTH 531 0
DWIDTH 8 0
BBX 7 10 1 0
BITMAP
3C
22
22
44
78
50
48
88
84
84
ENDCHAR

STARTCHAR S
ENCODING 83
SWIDTH 458 0
DWIDTH 7 0
BBX 7 10 0 0
BITMAP
1C
22
20
20
10
10
08
08
88
70
ENDCHAR

STARTCHAR T
ENCODING 84
SWIDTH 510 0
DWIDTH 8 0
BBX 7 10 2 0
BITMAP
FE
10
10
20
20
20
20
40
40
40
ENDCHAR

STARTCHAR U
ENCODING 85
SWIDTH 635 0
DWIDTH 10 0
BBX 9 10 1 0
BITMAP
2080
2080
2080
4100
4100
4100
4100
8200
8200
7C00
ENDCHAR

STARTCHAR V
ENCODING 86
SWIDTH 510 0
DWIDTH 8 0
BBX 7 10 2 0
BITMAP
82
82
84
44
48
48
50
50
20
20
ENDCHAR

STARTCHAR W
ENCODING 87
SWIDTH 927 0
DWIDTH 14 0
BBX 13 10 2 0
BITMAP
8208
8208
8610
4510
4920
4920
5140
5140
2080
2080
ENDCHAR

STARTCHAR X
ENCODING 88
SWIDTH 667 0
DWIDTH 10 0
BBX 10 10 0 0
BITMAP
1040
1080
0900
0A00
0400
0C00
1200
2200
4100
8100
ENDCHAR

STARTCHAR Y
ENCODING 89
SWIDTH 490 0
DWIDTH 7 0
BBX 7 10 2 0
BITMAP
82
84
48
48
50
20
20
40
40
40
ENDCHAR

STARTCHAR Z
ENCODING 90
SWIDTH 583 0
DWIDTH 9 0
BBX 10 10 0 0
BITMAP
3FC0
0080
0100
0200
0400
0800
1000
2000
4000
FF00
ENDCHAR

STARTCHAR bracketleft
ENCODING 91
SWIDTH 333 0
DWIDTH 5 0
BBX 5 13 1 -3
BITMAP
38
20
20
20
40
40
40
40
40
80
80
80
E0
ENDCHAR

STARTCHAR backslash
ENCODING 92
SWIDTH 281 0
DWIDTH 4 0
BBX 4 10 0 0
BITMAP
80
80
40
40
40
20
20
20
10
10
ENDCHAR

STARTCHAR bracketright
ENCODING 93
SWIDTH 333 0
DWIDTH 5 0
BBX 5 13 -1 -3
BITMAP
38
08
08
08
10
10
10
10
10
20
20
20
E0
ENDCHAR

STARTCHAR asciicircum
ENCODING 94
SWIDTH 469 0
DWIDTH 7 0
BBX 7 6 1 4
BITMAP
10
10
28
44
44
82
ENDCHAR

STARTCHAR underscore
ENCODING 95
SWIDTH 500 0
DWIDTH 8 0
BBX 8 1 0 -2
BITMAP
FF
ENDCHAR

STARTCHAR quoteleft
ENCODING 96
SWIDTH 198 0
DWIDTH 3 0
BBX 3 3 0 7
BITMAP
60
80
C0
ENDCHAR

STARTCHAR a
ENCODING 97
SWIDTH 469 0
DWIDTH 7 0
BBX 6 7 1 0
BITMAP
3C
44
44
88
88
98
68
ENDCHAR

STARTCHAR b
ENCODING 98
SWIDTH 469 0
DWIDTH 7 0
BBX 6 10 1 0
BITMAP
20
20
20
58
64
44
44
88
88
F0
ENDCHAR

STARTCHAR c
ENCODING 99
SWIDTH 385 0
DWIDTH 6 0
BBX 5 7 1 0
BITMAP
38
40
40
80
80
88
70
ENDCHAR

STARTCHAR d
ENCODING 100
SWIDTH 469 0
DWIDTH 7 0
BBX 7 10 1 0
BITMAP
02
02
02
3C
44
44
84
88
88
78
ENDCHAR

STARTCHAR e
ENCODING 101
SWIDTH 438 0
DWIDTH 7 0
BBX 6 7 1 0
BITMAP
38
44
7C
80
80
88
70
ENDCHAR

STARTCHAR f
ENCODING 102
SWIDTH 271 0
DWIDTH 4 0
BBX 6 13 1 -3
BITMAP
0C
10
20
F8
20
20
40
40
40
40
80
80
80
ENDCHAR

STARTCHAR g
ENCODING 103
SWIDTH 427 0
DWIDTH 6 0
BBX 7 10 0 -3
BITMAP
1E
24
44
48
30
40
38
44
84
78
ENDCHAR

STARTCHAR h
ENCODING 104
SWIDTH 469 0
DWIDTH 7 0
BBX 6 10 1 0
BITMAP
20
20
20
58
64
44
44
88
88
88
ENDCHAR

STARTCHAR i
ENCODING 105
SWIDTH 188 0
DWIDTH 3 0
BBX 3 9 1 0
BITMAP
20
00
40
40
40
40
80
80
80
ENDCHAR

STARTCHAR j
ENCODING 106
SWIDTH 188 0
DWIDTH 3 0
BBX 5 12 -1 -3
BITMAP
08
00
10
10
10
10
10
20
20
20
20
C0
ENDCHAR

STARTCHAR k
ENCODING 107
SWIDTH 458 0
DWIDTH 7 0
BBX 6 10 1 0
BITMAP
20
20
20
44
48
50
60
90
88
84
ENDCHAR

STARTCHAR l
ENCODING 108
SWIDTH 188 0
DWIDTH 3 0
BBX 3 10 1 0
BITMAP
20
20
20
40
40
40
40
80
80
80
ENDCHAR

STARTCHAR m
ENCODING 109
SWIDTH 740 0
DWIDTH 11 0
BBX 10 7 1 0
BITMAP
5D80
6640
4440
4440
8880
8880
8880
ENDCHAR

STARTCHAR n
ENCODING 110
SWIDTH 469 0
DWIDTH 7 0
BBX 6 7 1 0
BITMAP
58
64
44
44
88
88
88
ENDCHAR

STARTCHAR o
ENCODING 111
SWIDTH 448 0
DWIDTH 7 0
BBX 6 7 1 0
BITMAP
38
44
44
84
88
88
70
ENDCHAR

STARTCHAR p
ENCODING 112
SWIDTH 490 0
DWIDTH 7 0
BBX 6 12 1 -3
BITMAP
20
20
38
64
C4
44
48
48
B0
80
80
80
ENDCHAR

STARTCHAR q
ENCODING 113
SWIDTH 469 0
DWIDTH 7 0
BBX 6 10 1 -3
BITMAP
3C
44
44
88
88
98
68
10
10
10
ENDCHAR

STARTCHAR r
ENCODING 114
SWIDTH 313 0
DWIDTH 5 0
BBX 5 7 1 0
BITMAP
58
60
40
40
80
80
80
ENDCHAR

STARTCHAR s
ENCODING 115
SWIDTH 354 0
DWIDTH 5 0
BBX 5 7 1 0
BITMAP
30
48
40
20
10
90
60
ENDCHAR

STARTCHAR t
ENCODING 116
SWIDTH 281 0
DWIDTH 4 0
BBX 4 8 1 0
BITMAP
20
F0
40
40
40
80
80
60
ENDCHAR

STARTCHAR u
ENCODING 117
SWIDTH 469 0
DWIDTH 7 0
BBX 6 7 1 0
BITMAP
44
44
44
88
88
98
68
ENDCHAR

STARTCHAR v
ENCODING 118
SWIDTH 375 0
DWIDTH 6 0
BBX 5 7 2 0
BITMAP
88
90
90
A0
A0
40
40
ENDCHAR

STARTCHAR w
ENCODING 119
SWIDTH 615 0
DWIDTH 9 0
BBX 9 7 1 0
BITMAP
8880
9900
9900
AA00
AA00
4400
4400
ENDCHAR

STARTCHAR x
ENCODING 120
SWIDTH 427 0
DWIDTH 6 0
BBX 7 7 0 0
BITMAP
22
24
18
10
30
48
88
ENDCHAR

STARTCHAR y
ENCODING 121
SWIDTH 375 0
DWIDTH 6 0
BBX 6 10 1 -3
BITMAP
44
48
48
50
50
20
40
40
80
80
ENDCHAR

STARTCHAR z
ENCODING 122
SWIDTH 458 0
DWIDTH 7 0
BBX 6 7 1 0
BITMAP
7C
08
10
10
20
40
F8
ENDCHAR

STARTCHAR braceleft
ENCODING 123
SWIDTH 333 0
DWIDTH 5 0
BBX 4 14 1 -3
BITMAP
30
40
40
40
40
40
80
40
40
40
40
40
40
30
ENDCHAR

STARTCHAR bar
ENCODING 124
SWIDTH 260 0
DWIDTH 4 0
BBX 1 13 2 -3
BITMAP
80
80
80
80
80
80
80
80
80
80
80
80
80
ENDCHAR

STARTCHAR braceright
ENCODING 125
SWIDTH 333 0
DWIDTH 5 0
BBX 4 14 0 -3
BITMAP
C0
20
20
20
20
20
10
20
20
20
20
20
20
C0
ENDCHAR

STARTCHAR asciitilde
ENCODING 126
SWIDTH 584 0
DWIDTH 9 0
BBX 8 2 1 3
BITMAP
71
8E
ENDCHAR

STARTCHAR space
ENCODING 160
SWIDTH 278 0
DWIDTH 4 0
BBX 0 0 0 0
BITMAP
ENDCHAR

STARTCHAR exclamdown
ENCODING 161
SWIDTH 250 0
DWIDTH 4 0
BBX 3 10 1 -3
BITMAP
60
00
40
40
40
40
80
80
80
80
ENDCHAR

STARTCHAR cent
ENCODING 162
SWIDTH 385 0
DWIDTH 6 0
BBX 6 12 1 -3
BITMAP
08
08
3C
50
50
90
A0
A8
70
20
40
40
ENDCHAR

STARTCHAR sterling
ENCODING 163
SWIDTH 469 0
DWIDTH 7 0
BBX 7 10 1 0
BITMAP
0E
10
20
20
20
F8
40
40
80
FC
ENDCHAR

STARTCHAR currency
ENCODING 164
SWIDTH 552 0
DWIDTH 8 0
BBX 7 7 1 2
BITMAP
92
6C
44
82
44
6C
92
ENDCHAR

STARTCHAR yen
ENCODING 165
SWIDTH 552 0
DWIDTH 8 0
BBX 8 11 1 0
BITMAP
41
42
24
24
28
FE
10
FE
20
20
20
ENDCHAR

STARTCHAR brokenbar
ENCODING 166
SWIDTH 260 0
DWIDTH 4 0
BBX 1 13 2 -3
BITMAP
80
80
80
80
80
00
00
80
80
80
80
80
80
ENDCHAR

STARTCHAR section
ENCODING 167
SWIDTH 490 0
DWIDTH 7 0
BBX 5 13 1 -3
BITMAP
30
48
40
20
50
90
88
48
50
20
90
90
60
ENDCHAR

STARTCHAR dieresis
ENCODING 168
SWIDTH 333 0
DWIDTH 5 0
BBX 4 1 2 8
BITMAP
90
ENDCHAR

STARTCHAR copyright
ENCODING 169
SWIDTH 740 0
DWIDTH 11 0
BBX 11 11 1 0
BITMAP
1F00
2080
4E40
9120
9020
9020
9120
9120
4E40
2080
1F00
ENDCHAR

STARTCHAR ordfeminine
ENCODING 170
SWIDTH 313 0
DWIDTH 5 0
BBX 4 4 1 6
BITMAP
70
90
B0
50
ENDCHAR

STARTCHAR guillemotleft
ENCODING 171
SWIDTH 438 0
DWIDTH 7 0
BBX 7 7 0 0
BITMAP
12
24
48
90
90
48
48
ENDCHAR

STARTCHAR logicalnot
ENCODING 172
SWIDTH 584 0
DWIDTH 9 0
BBX 7 4 1 2
BITMAP
FE
02
02
02
ENDCHAR

STARTCHAR hyphen
ENCODING 173
SWIDTH 250 0
DWIDTH 4 0
BBX 4 1 0 3
BITMAP
F0
ENDCHAR

STARTCHAR registered
ENCODING 174
SWIDTH 740 0
DWIDTH 11 0
BBX 11 11 1 0
BITMAP
1F00
2080
5E40
9120
9120
9E20
9220
9120
4040
2080
1F00
ENDCHAR

STARTCHAR macron
ENCODING 175
SWIDTH 333 0
DWIDTH 5 0
BBX 5 1 1 9
BITMAP
F8
ENDCHAR

STARTCHAR degree
ENCODING 176
SWIDTH 396 0
DWIDTH 6 0
BBX 4 4 2 7
BITMAP
60
90
90
60
ENDCHAR

STARTCHAR plusminus
ENCODING 177
SWIDTH 584 0
DWIDTH 9 0
BBX 7 9 1 0
BITMAP
10
10
10
FE
10
10
10
00
FE
ENDCHAR

STARTCHAR twosuperior
ENCODING 178
SWIDTH 323 0
DWIDTH 5 0
BBX 4 5 1 5
BITMAP
60
10
20
40
E0
ENDCHAR

STARTCHAR threesuperior
ENCODING 179
SWIDTH 323 0
DWIDTH 5 0
BBX 4 5 1 5
BITMAP
70
10
20
10
E0
ENDCHAR

STARTCHAR acute
ENCODING 180
SWIDTH 333 0
DWIDTH 5 0
BBX 2 2 2 8
BITMAP
40
80
ENDCHAR

STARTCHAR mu
ENCODING 181
SWIDTH 552 0
DWIDTH 8 0
BBX 8 10 0 -3
BITMAP
21
21
21
42
42
66
5A
80
80
80
ENDCHAR

STARTCHAR paragraph
ENCODING 182
SWIDTH 542 0
DWIDTH 8 0
BBX 8 14 1 -3
BITMAP
7F
F2
F2
F2
F2
72
12
12
12
12
12
12
12
12
ENDCHAR

STARTCHAR periodcentered
ENCODING 183
SWIDTH 260 0
DWIDTH 4 0
BBX 2 2 1 4
BITMAP
C0
C0
ENDCHAR

STARTCHAR cedilla
ENCODING 184
SWIDTH 333 0
DWIDTH 5 0
BBX 4 3 0 -3
BITMAP
20
10
E0
ENDCHAR

STARTCHAR onesuperior
ENCODING 185
SWIDTH 323 0
DWIDTH 5 0
BBX 2 5 2 5
BITMAP
40
40
80
80
80
ENDCHAR

STARTCHAR ordmasculine
ENCODING 186
SWIDTH 302 0
DWIDTH 5 0
BBX 4 5 1 5
BITMAP
30
50
90
A0
C0
ENDCHAR

STARTCHAR guillemotright
ENCODING 187
SWIDTH 438 0
DWIDTH 7 0
BBX 7 7 0 0
BITMAP
24
24
12
12
24
48
90
ENDCHAR

STARTCHAR onequarter
ENCODING 188
SWIDTH 844 0
DWIDTH 13 0
BBX 9 10 1 0
BITMAP
2080
2100
4200
4400
4800
0980
1300
2780
4100
8100
ENDCHAR

STARTCHAR onehalf
ENCODING 189
SWIDTH 844 0
DWIDTH 13 0
BBX 10 10 1 0
BITMAP
2080
2100
4200
4400
4800
0980
1040
2080
4100
8380
ENDCHAR

STARTCHAR threequarters
ENCODING 190
SWIDTH 844 0
DWIDTH 13 0
BBX 10 10 1 0
BITMAP
7040
1080
2100
1200
E400
04C0
0980
13C0
2080
4080
ENDCHAR

STARTCHAR questiondown
ENCODING 191
SWIDTH 354 0
DWIDTH 5 0
BBX 4 10 1 -3
BITMAP
30
00
20
20
40
40
80
80
80
60
ENDCHAR

STARTCHAR Agrave
ENCODING 192
SWIDTH 521 0
DWIDTH 8 0
BBX 7 13 0 0
BITMAP
08
04
00
04
04
0C
12
12
22
7E
42
82
82
ENDCHAR

STARTCHAR Aacute
ENCODING 193
SWIDTH 521 0
DWIDTH 8 0
BBX 7 13 0 0
BITMAP
02
04
00
04
04
0C
12
12
22
7E
42
82
82
ENDCHAR

STARTCHAR Acircumflex
ENCODING 194
SWIDTH 521 0
DWIDTH 8 0
BBX 7 13 0 0
BITMAP
06
0A
00
04
04
0C
12
12
22
7E
42
82
82
ENDCHAR

STARTCHAR Atilde
ENCODING 195
SWIDTH 521 0
DWIDTH 8 0
BBX 9 13 0 0
BITMAP
0680
0B00
0000
0400
0400
0C00
1200
1200
2200
7E00
4200
8200
8200
ENDCHAR

STARTCHAR Adieresis
ENCODING 196
SWIDTH 521 0
DWIDTH 8 0
BBX 7 12 0 0
BITMAP
0A
00
04
04
0C
12
12
22
7E
42
82
82
ENDCHAR

STARTCHAR Aring
ENCODING 197
SWIDTH 521 0
DWIDTH 8 0
BBX 8 13 0 0
BITMAP
02
05
02
04
04
0C
12
12
22
7E
42
82
82
ENDCHAR

STARTCHAR AE
ENCODING 198
SWIDTH 833 0
DWIDTH 12 0
BBX 12 10 0 0
BITMAP
07F0
0500
0900
0A00
1FC0
1200
2200
4400
4400
87E0
ENDCHAR

STARTCHAR Ccedilla
ENCODING 199
SWIDTH 552 0
DWIDTH 8 0
BBX 7 13 1 -3
BITMAP
1E
20
40
40
80
80
80
80
44
38
20
10
E0
ENDCHAR

STARTCHAR Egrave
ENCODING 200
SWIDTH 510 0
DWIDTH 8 0
BBX 7 13 1 0
BITMAP
08
04
00
3E
20
20
40
78
40
40
80
80
FC
ENDCHAR

STARTCHAR Eacute
ENCODING 201
SWIDTH 510 0
DWIDTH 8 0
BBX 7 13 1 0
BITMAP
04
08
00
3E
20
20
40
78
40
40
80
80
FC
ENDCHAR

STARTCHAR Ecircumflex
ENCODING 202
SWIDTH 510 0
DWIDTH 8 0
BBX 7 13 1 0
BITMAP
0C
14
00
3E
20
20
40
78
40
40
80
80
FC
ENDCHAR

STARTCHAR Edieresis
ENCODING 203
SWIDTH 510 0
DWIDTH 8 0
BBX 7 12 1 0
BITMAP
12
00
3E
20
20
40
78
40
40
80
80
FC
ENDCHAR

STARTCHAR Igrave
ENCODING 204
SWIDTH 240 0
DWIDTH 4 0
BBX 4 13 1 0
BITMAP
20
10
00
20
20
20
40
40
40
40
80
80
80
ENDCHAR

STARTCHAR Iacute
ENCODING 205
SWIDTH 240 0
DWIDTH 4 0
BBX 4 13 1 0
BITMAP
10
20
00
20
20
20
40
40
40
40
80
80
80
ENDCHAR

STARTCHAR Icircumflex
ENCODING 206
SWIDTH 240 0
DWIDTH 4 0
BBX 4 13 1 0
BITMAP
30
50
00
20
20
20
40
40
40
40
80
80
80
ENDCHAR

STARTCHAR Idieresis
ENCODING 207
SWIDTH 240 0
DWIDTH 4 0
BBX 4 12 1 0
BITMAP
50
00
20
20
20
40
40
40
40
80
80
80
ENDCHAR

STARTCHAR Eth
ENCODING 208
SWIDTH 656 0
DWIDTH 10 0
BBX 8 10 1 0
BITMAP
3C
22
21
41
41
F1
41
82
82
FC
ENDCHAR

STARTCHAR Ntilde
ENCODING 209
SWIDTH 688 0
DWIDTH 10 0
BBX 9 13 1 0
BITMAP
0680
0B00
0000
2080
2080
3080
5100
4900
4900
4500
8600
8200
8200
ENDCHAR

STARTCHAR Ograve
ENCODING 210
SWIDTH 656 0
DWIDTH 10 0
BBX 8 13 1 0
BITMAP
08
04
00
1C
22
41
41
81
81
82
82
44
38
ENDCHAR

STARTCHAR Oacute
ENCODING 211
SWIDTH 656 0
DWIDTH 10 0
BBX 8 13 1 0
BITMAP
02
04
00
1C
22
41
41
81
81
82
82
44
38
ENDCHAR

STARTCHAR Ocircumflex
ENCODING 212
SWIDTH 656 0
DWIDTH 10 0
BBX 8 13 1 0
BITMAP
06
0A
00
1C
22
41
41
81
81
82
82
44
38
ENDCHAR

STARTCHAR Otilde
ENCODING 213
SWIDTH 656 0
DWIDTH 10 0
BBX 8 13 1 0
BITMAP
0D
16
00
1C
22
41
41
81
81
82
82
44
38
ENDCHAR

STARTCHAR Odieresis
ENCODING 214
SWIDTH 656 0
DWIDTH 10 0
BBX 8 12 1 0
BITMAP
0A
00
1C
22
41
41
81
81
82
82
44
38
ENDCHAR

STARTCHAR multiply
ENCODING 215
SWIDTH 584 0
DWIDTH 9 0
BBX 7 7 2 2
BITMAP
82
44
28
10
28
44
82
ENDCHAR

STARTCHAR Oslash
ENCODING 216
SWIDTH 656 0
DWIDTH 10 0
BBX 8 10 1 0
BITMAP
1F
23
45
49
89
91
A2
C2
C4
F8
ENDCHAR

STARTCHAR Ugrave
ENCODING 217
SWIDTH 635 0
DWIDTH 10 0
BBX 9 13 1 0
BITMAP
0800
0400
0000
2080
2080
2080
4100
4100
4100
4100
8200
8200
7C00
ENDCHAR

STARTCHAR Uacute
ENCODING 218
SWIDTH 635 0
DWIDTH 10 0
BBX 9 13 1 0
BITMAP
0200
0400
0000
2080
2080
2080
4100
4100
4100
4100
8200
8200
7C00
ENDCHAR

STARTCHAR Ucircumflex
ENCODING 219
SWIDTH 635 0
DWIDTH 10 0
BBX 9 13 1 0
BITMAP
0600
0A00
0000
2080
2080
2080
4100
4100
4100
4100
8200
8200
7C00
ENDCHAR

STARTCHAR Udieresis
ENCODING 220
SWIDTH 635 0
DWIDTH 10 0
BBX 9 12 1 0
BITMAP
0900
0000
2080
2080
2080
4100
4100
4100
4100
8200
8200
7C00
ENDCHAR

STARTCHAR Yacute
ENCODING 221
SWIDTH 490 0
DWIDTH 7 0
BBX 7 13 2 0
BITMAP
08
10
00
82
84
48
48
50
20
20
40
40
40
ENDCHAR

STARTCHAR Thorn
ENCODING 222
SWIDTH 448 0
DWIDTH 7 0
BBX 6 10 1 0
BITMAP
20
20
38
44
44
44
48
F0
80
80
ENDCHAR

STARTCHAR germandbls
ENCODING 223
SWIDTH 500 0
DWIDTH 8 0
BBX 6 10 1 0
BITMAP
18
24
24
24
58
44
44
84
88
B0
ENDCHAR

STARTCHAR agrave
ENCODING 224
SWIDTH 469 0
DWIDTH 7 0
BBX 6 10 1 0
BITMAP
10
08
00
3C
44
44
88
88
98
68
ENDCHAR

STARTCHAR aacute
ENCODING 225
SWIDTH 469 0
DWIDTH 7 0
BBX 6 10 1 0
BITMAP
04
08
00
3C
44
44
88
88
98
68
ENDCHAR

STARTCHAR acircumflex
ENCODING 226
SWIDTH 469 0
DWIDTH 7 0
BBX 6 10 1 0
BITMAP
0C
14
00
3C
44
44
88
88
98
68
ENDCHAR

STARTCHAR atilde
ENCODING 227
SWIDTH 469 0
DWIDTH 7 0
BBX 7 10 1 0
BITMAP
1A
2C
00
3C
44
44
88
88
98
68
ENDCHAR

STARTCHAR adieresis
ENCODING 228
SWIDTH 469 0
DWIDTH 7 0
BBX 6 9 1 0
BITMAP
14
00
3C
44
44
88
88
98
68
ENDCHAR

STARTCHAR aring
ENCODING 229
SWIDTH 469 0
DWIDTH 7 0
BBX 6 11 1 0
BITMAP
08
14
08
00
3C
44
44
88
88
98
68
ENDCHAR

STARTCHAR ae
ENCODING 230
SWIDTH 646 0
DWIDTH 10 0
BBX 9 7 1 0
BITMAP
7700
1880
1F80
7800
9800
9880
6700
ENDCHAR

STARTCHAR ccedilla
ENCODING 231
SWIDTH 385 0
DWIDTH 6 0
BBX 5 10 1 -3
BITMAP
38
40
40
80
80
88
70
20
10
E0
ENDCHAR

STARTCHAR egrave
ENCODING 232
SWIDTH 438 0
DWIDTH 7 0
BBX 6 10 1 0
BITMAP
10
08
00
38
44
7C
80
80
88
70
ENDCHAR

STARTCHAR eacute
ENCODING 233
SWIDTH 438 0
DWIDTH 7 0
BBX 6 10 1 0
BITMAP
08
10
00
38
44
7C
80
80
88
70
ENDCHAR

STARTCHAR ecircumflex
ENCODING 234
SWIDTH 438 0
DWIDTH 7 0
BBX 6 10 1 0
BITMAP
0C
14
00
38
44
7C
80
80
88
70
ENDCHAR

STARTCHAR edieresis
ENCODING 235
SWIDTH 438 0
DWIDTH 7 0
BBX 6 9 1 0
BITMAP
14
00
38
44
7C
80
80
88
70
ENDCHAR

STARTCHAR igrave
ENCODING 236
SWIDTH 188 0
DWIDTH 3 0
BBX 2 10 1 0
BITMAP
80
40
00
40
40
40
40
80
80
80
ENDCHAR

STARTCHAR iacute
ENCODING 237
SWIDTH 188 0
DWIDTH 3 0
BBX 3 10 1 0
BITMAP
20
40
00
40
40
40
40
80
80
80
ENDCHAR

STARTCHAR icircumflex
ENCODING 238
SWIDTH 188 0
DWIDTH 3 0
BBX 3 10 1 0
BITMAP
60
A0
00
40
40
40
40
80
80
80
ENDCHAR

STARTCHAR idieresis
ENCODING 239
SWIDTH 188 0
DWIDTH 3 0
BBX 3 9 1 0
BITMAP
A0
00
40
40
40
40
80
80
80
ENDCHAR

STARTCHAR eth
ENCODING 240
SWIDTH 448 0
DWIDTH 7 0
BBX 6 11 0 0
BITMAP
24
18
28
04
3C
44
44
84
88
88
70
ENDCHAR

STARTCHAR ntilde
ENCODING 241
SWIDTH 469 0
DWIDTH 7 0
BBX 7 10 1 0
BITMAP
1A
2C
00
58
64
44
44
88
88
88
ENDCHAR

STARTCHAR ograve
ENCODING 242
SWIDTH 448 0
DWIDTH 7 0
BBX 6 10 1 0
BITMAP
10
08
00
38
44
44
84
88
88
70
ENDCHAR

STARTCHAR oacute
ENCODING 243
SWIDTH 448 0
DWIDTH 7 0
BBX 6 10 1 0
BITMAP
08
10
00
38
44
44
84
88
88
70
ENDCHAR

STARTCHAR ocircumflex
ENCODING 244
SWIDTH 448 0
DWIDTH 7 0
BBX 6 10 1 0
BITMAP
0C
14
00
38
44
44
84
88
88
70
ENDCHAR

STARTCHAR otilde
ENCODING 245
SWIDTH 448 0
DWIDTH 7 0
BBX 7 10 1 0
BITMAP
1A
2C
00
38
44
44
84
88
88
70
ENDCHAR

STARTCHAR odieresis
ENCODING 246
SWIDTH 448 0
DWIDTH 7 0
BBX 6 9 1 0
BITMAP
14
00
38
44
44
84
88
88
70
ENDCHAR

STARTCHAR divide
ENCODING 247
SWIDTH 584 0
DWIDTH 9 0
BBX 6 5 2 3
BITMAP
30
00
FC
00
30
ENDCHAR

STARTCHAR oslash
ENCODING 248
SWIDTH 448 0
DWIDTH 7 0
BBX 6 7 1 0
BITMAP
3C
4C
54
94
A8
C8
F0
ENDCHAR

STARTCHAR ugrave
ENCODING 249
SWIDTH 469 0
DWIDTH 7 0
BBX 6 10 1 0
BITMAP
10
08
00
44
44
44
88
88
98
68
ENDCHAR

STARTCHAR uacute
ENCODING 250
SWIDTH 469 0
DWIDTH 7 0
BBX 6 10 1 0
BITMAP
08
10
00
44
44
44
88
88
98
68
ENDCHAR

STARTCHAR ucircumflex
ENCODING 251
SWIDTH 469 0
DWIDTH 7 0
BBX 6 10 1 0
BITMAP
0C
14
00
44
44
44
88
88
98
68
ENDCHAR

STARTCHAR udieresis
ENCODING 252
SWIDTH 469 0
DWIDTH 7 0
BBX 6 9 1 0
BITMAP
24
00
44
44
44
88
88
98
68
ENDCHAR

STARTCHAR yacute
ENCODING 253
SWIDTH 375 0
DWIDTH 6 0
BBX 6 13 1 -3
BITMAP
08
10
00
44
48
48
50
50
20
40
40
80
80
ENDCHAR

STARTCHAR thorn
ENCODING 254
SWIDTH 490 0
DWIDTH 7 0
BBX 6 13 0 -3
BITMAP
20
20
20
38
44
44
44
44
48
F0
80
80
80
ENDCHAR

STARTCHAR ydieresis
ENCODING 255
SWIDTH 375 0
DWIDTH 6 0
BBX 6 12 1 -3
BITMAP
28
00
44
48
48
50
50
20
40
40
80
80
ENDCHAR
ENDFONT
